<svg width="44" height="47" viewBox="0 0 44 47" fill="none" xmlns="http://www.w3.org/2000/svg">
<g style="mix-blend-mode:color-burn" filter="url(#filter0_b_121_209)">
<path d="M0 12.4336C0 5.80618 5.37258 0.433594 12 0.433594H32C38.6274 0.433594 44 5.80618 44 12.4336V34.0471C44 40.6745 38.6274 46.0471 32 46.0471H12C5.37258 46.0471 0 40.6746 0 34.0471V12.4336Z" fill="#4DBAD2"/>
<path d="M12 0.933594H32C38.3513 0.933594 43.5 6.08232 43.5 12.4336V34.0471C43.5 40.3984 38.3513 45.5471 32 45.5471H12C5.64872 45.5471 0.5 40.3984 0.5 34.0471V12.4336C0.5 6.08232 5.64873 0.933594 12 0.933594Z" stroke="black"/>
</g>
<defs>
<filter id="filter0_b_121_209" x="-4" y="-3.56641" width="52" height="53.6133" filterUnits="userSpaceOnUse" color-interpolation-filters="sRGB">
<feFlood flood-opacity="0" result="BackgroundImageFix"/>
<feGaussianBlur in="BackgroundImageFix" stdDeviation="2"/>
<feComposite in2="SourceAlpha" operator="in" result="effect1_backgroundBlur_121_209"/>
<feBlend mode="normal" in="SourceGraphic" in2="effect1_backgroundBlur_121_209" result="shape"/>
</filter>
</defs>
</svg>
